<svg width="32" height="101" viewBox="0 0 32 101" fill="none" xmlns="http://www.w3.org/2000/svg">
<rect x="8" y="0.0893555" width="8" height="8" transform="rotate(90 8 0.0893555)" fill="#F1EEF8"/>
<rect x="8.08057" y="23.0894" width="8" height="8" transform="rotate(90 8.08057 23.0894)" fill="#7253B0"/>
<rect x="8.16113" y="46.0894" width="8" height="8" transform="rotate(90 8.16113 46.0894)" fill="#7253B0"/>
<rect x="8.24121" y="69.0894" width="8" height="8" transform="rotate(90 8.24121 69.0894)" fill="#7253B0"/>
<rect x="8.32178" y="92.0894" width="8" height="8" transform="rotate(90 8.32178 92.0894)" fill="#F1EEF8"/>
<rect x="31.3218" width="8" height="8" transform="rotate(90 31.3218 0)" fill="#F1EEF8"/>
<rect x="31.4023" y="23" width="8" height="8" transform="rotate(90 31.4023 23)" fill="#7253B0"/>
<rect x="31.4824" y="46" width="8" height="8" transform="rotate(90 31.4824 46)" fill="#7253B0"/>
<rect x="31.563" y="69" width="8" height="8" transform="rotate(90 31.563 69)" fill="#7253B0"/>
<rect x="31.6436" y="92" width="8" height="8" transform="rotate(90 31.6436 92)" fill="#F1EEF8"/>
</svg>
